<mxfile host="Electron" agent="Mozilla/5.0 (Windows NT 10.0; Win64; x64) AppleWebKit/537.36 (KHTML, like Gecko) draw.io/26.0.9 Chrome/128.0.6613.186 Electron/32.2.5 Safari/537.36" version="26.0.9">
  <diagram name="Page-1" id="ihzDv2c2ZRSZcmqqvSIO">
    <mxGraphModel dx="1200" dy="584" grid="1" gridSize="10" guides="1" tooltips="1" connect="1" arrows="1" fold="1" page="1" pageScale="1" pageWidth="850" pageHeight="1100" math="0" shadow="0">
      <root>
        <mxCell id="0" />
        <mxCell id="1" parent="0" />
        <mxCell id="XS5mWm5_puw8wy52mipC-2" value="&lt;font style=&quot;font-size: 22px;&quot;&gt;&lt;b&gt;&lt;font style=&quot;&quot;&gt;D&lt;/font&gt;ata Flow Diagram&lt;/b&gt;&lt;/font&gt;" style="text;html=1;align=left;verticalAlign=middle;whiteSpace=wrap;rounded=0;" vertex="1" parent="1">
          <mxGeometry x="10" y="10" width="270" height="30" as="geometry" />
        </mxCell>
        <mxCell id="XS5mWm5_puw8wy52mipC-3" value="" style="rounded=0;whiteSpace=wrap;html=1;fillColor=none;dashed=1;" vertex="1" parent="1">
          <mxGeometry x="49" y="93" width="120" height="420" as="geometry" />
        </mxCell>
        <mxCell id="XS5mWm5_puw8wy52mipC-4" value="&lt;b&gt;Source&lt;/b&gt;" style="rounded=0;whiteSpace=wrap;html=1;strokeColor=none;" vertex="1" parent="1">
          <mxGeometry x="62" y="80" width="90" height="30" as="geometry" />
        </mxCell>
        <mxCell id="XS5mWm5_puw8wy52mipC-22" style="edgeStyle=orthogonalEdgeStyle;rounded=0;orthogonalLoop=1;jettySize=auto;html=1;entryX=0;entryY=0.5;entryDx=0;entryDy=0;" edge="1" parent="1" source="XS5mWm5_puw8wy52mipC-5" target="XS5mWm5_puw8wy52mipC-21">
          <mxGeometry relative="1" as="geometry" />
        </mxCell>
        <mxCell id="XS5mWm5_puw8wy52mipC-23" style="edgeStyle=orthogonalEdgeStyle;rounded=0;orthogonalLoop=1;jettySize=auto;html=1;entryX=0;entryY=0.5;entryDx=0;entryDy=0;" edge="1" parent="1" source="XS5mWm5_puw8wy52mipC-5" target="XS5mWm5_puw8wy52mipC-20">
          <mxGeometry relative="1" as="geometry" />
        </mxCell>
        <mxCell id="XS5mWm5_puw8wy52mipC-24" style="edgeStyle=orthogonalEdgeStyle;rounded=0;orthogonalLoop=1;jettySize=auto;html=1;entryX=0;entryY=0.5;entryDx=0;entryDy=0;" edge="1" parent="1" source="XS5mWm5_puw8wy52mipC-5" target="XS5mWm5_puw8wy52mipC-19">
          <mxGeometry relative="1" as="geometry" />
        </mxCell>
        <mxCell id="XS5mWm5_puw8wy52mipC-5" value="&lt;b&gt;CRM&lt;/b&gt;" style="image;aspect=fixed;html=1;points=[];align=center;fontSize=12;image=img/lib/azure2/general/Folder_Blank.svg;" vertex="1" parent="1">
          <mxGeometry x="82.5" y="210.23" width="49" height="39.77" as="geometry" />
        </mxCell>
        <mxCell id="XS5mWm5_puw8wy52mipC-25" style="edgeStyle=orthogonalEdgeStyle;rounded=0;orthogonalLoop=1;jettySize=auto;html=1;entryX=0;entryY=0.5;entryDx=0;entryDy=0;" edge="1" parent="1" source="XS5mWm5_puw8wy52mipC-6" target="XS5mWm5_puw8wy52mipC-18">
          <mxGeometry relative="1" as="geometry" />
        </mxCell>
        <mxCell id="XS5mWm5_puw8wy52mipC-26" style="edgeStyle=orthogonalEdgeStyle;rounded=0;orthogonalLoop=1;jettySize=auto;html=1;entryX=0;entryY=0.5;entryDx=0;entryDy=0;" edge="1" parent="1" source="XS5mWm5_puw8wy52mipC-6" target="XS5mWm5_puw8wy52mipC-17">
          <mxGeometry relative="1" as="geometry" />
        </mxCell>
        <mxCell id="XS5mWm5_puw8wy52mipC-27" style="edgeStyle=orthogonalEdgeStyle;rounded=0;orthogonalLoop=1;jettySize=auto;html=1;entryX=0;entryY=0.5;entryDx=0;entryDy=0;" edge="1" parent="1" source="XS5mWm5_puw8wy52mipC-6" target="XS5mWm5_puw8wy52mipC-16">
          <mxGeometry relative="1" as="geometry" />
        </mxCell>
        <mxCell id="XS5mWm5_puw8wy52mipC-6" value="ERP" style="image;aspect=fixed;html=1;points=[];align=center;fontSize=12;image=img/lib/azure2/general/Folder_Blank.svg;fontStyle=1" vertex="1" parent="1">
          <mxGeometry x="83" y="378.9" width="52" height="42.2" as="geometry" />
        </mxCell>
        <mxCell id="XS5mWm5_puw8wy52mipC-8" value="&lt;font style=&quot;font-size: 13px;&quot;&gt;Bronze Layer&lt;/font&gt;" style="rounded=1;whiteSpace=wrap;html=1;fillColor=#ffe6cc;strokeColor=#d79b00;fontStyle=1" vertex="1" parent="1">
          <mxGeometry x="230" y="80" width="200" height="40" as="geometry" />
        </mxCell>
        <mxCell id="XS5mWm5_puw8wy52mipC-9" value="" style="rounded=1;whiteSpace=wrap;html=1;fillColor=none;strokeColor=#d79b00;" vertex="1" parent="1">
          <mxGeometry x="223" y="130" width="210" height="380" as="geometry" />
        </mxCell>
        <mxCell id="XS5mWm5_puw8wy52mipC-49" style="edgeStyle=orthogonalEdgeStyle;rounded=0;orthogonalLoop=1;jettySize=auto;html=1;exitX=1;exitY=0.5;exitDx=0;exitDy=0;entryX=0;entryY=0.5;entryDx=0;entryDy=0;" edge="1" parent="1" source="XS5mWm5_puw8wy52mipC-16" target="XS5mWm5_puw8wy52mipC-38">
          <mxGeometry relative="1" as="geometry" />
        </mxCell>
        <mxCell id="XS5mWm5_puw8wy52mipC-16" value="&lt;span style=&quot;font-size: 13px;&quot;&gt;erp_px_cat_g1v2&lt;/span&gt;" style="rounded=1;whiteSpace=wrap;html=1;fillColor=#ffe6cc;strokeColor=#d79b00;" vertex="1" parent="1">
          <mxGeometry x="240" y="430" width="180" height="40" as="geometry" />
        </mxCell>
        <mxCell id="XS5mWm5_puw8wy52mipC-48" style="edgeStyle=orthogonalEdgeStyle;rounded=0;orthogonalLoop=1;jettySize=auto;html=1;exitX=1;exitY=0.5;exitDx=0;exitDy=0;entryX=0;entryY=0.5;entryDx=0;entryDy=0;" edge="1" parent="1" source="XS5mWm5_puw8wy52mipC-17" target="XS5mWm5_puw8wy52mipC-39">
          <mxGeometry relative="1" as="geometry" />
        </mxCell>
        <mxCell id="XS5mWm5_puw8wy52mipC-17" value="&lt;span style=&quot;font-size: 13px;&quot;&gt;erp_loc_a101&lt;/span&gt;" style="rounded=1;whiteSpace=wrap;html=1;fillColor=#ffe6cc;strokeColor=#d79b00;" vertex="1" parent="1">
          <mxGeometry x="240" y="380" width="180" height="40" as="geometry" />
        </mxCell>
        <mxCell id="XS5mWm5_puw8wy52mipC-47" style="edgeStyle=orthogonalEdgeStyle;rounded=0;orthogonalLoop=1;jettySize=auto;html=1;exitX=1;exitY=0.5;exitDx=0;exitDy=0;entryX=0;entryY=0.5;entryDx=0;entryDy=0;" edge="1" parent="1" source="XS5mWm5_puw8wy52mipC-18" target="XS5mWm5_puw8wy52mipC-40">
          <mxGeometry relative="1" as="geometry" />
        </mxCell>
        <mxCell id="XS5mWm5_puw8wy52mipC-18" value="&lt;span style=&quot;font-size: 13px;&quot;&gt;erp_cust_az12&lt;/span&gt;" style="rounded=1;whiteSpace=wrap;html=1;fillColor=#ffe6cc;strokeColor=#d79b00;" vertex="1" parent="1">
          <mxGeometry x="240" y="330" width="180" height="40" as="geometry" />
        </mxCell>
        <mxCell id="XS5mWm5_puw8wy52mipC-46" style="edgeStyle=orthogonalEdgeStyle;rounded=0;orthogonalLoop=1;jettySize=auto;html=1;exitX=1;exitY=0.5;exitDx=0;exitDy=0;entryX=0;entryY=0.5;entryDx=0;entryDy=0;" edge="1" parent="1" source="XS5mWm5_puw8wy52mipC-19" target="XS5mWm5_puw8wy52mipC-41">
          <mxGeometry relative="1" as="geometry" />
        </mxCell>
        <mxCell id="XS5mWm5_puw8wy52mipC-19" value="&lt;span style=&quot;font-size: 13px;&quot;&gt;crm_prod_info&lt;/span&gt;" style="rounded=1;whiteSpace=wrap;html=1;fillColor=#ffe6cc;strokeColor=#d79b00;" vertex="1" parent="1">
          <mxGeometry x="240" y="260" width="180" height="40" as="geometry" />
        </mxCell>
        <mxCell id="XS5mWm5_puw8wy52mipC-45" style="edgeStyle=orthogonalEdgeStyle;rounded=0;orthogonalLoop=1;jettySize=auto;html=1;exitX=1;exitY=0.5;exitDx=0;exitDy=0;entryX=0;entryY=0.5;entryDx=0;entryDy=0;" edge="1" parent="1" source="XS5mWm5_puw8wy52mipC-20" target="XS5mWm5_puw8wy52mipC-42">
          <mxGeometry relative="1" as="geometry" />
        </mxCell>
        <mxCell id="XS5mWm5_puw8wy52mipC-20" value="&lt;span style=&quot;font-size: 13px;&quot;&gt;crm_cust_info&lt;/span&gt;" style="rounded=1;whiteSpace=wrap;html=1;fillColor=#ffe6cc;strokeColor=#d79b00;" vertex="1" parent="1">
          <mxGeometry x="240" y="210" width="180" height="40" as="geometry" />
        </mxCell>
        <mxCell id="XS5mWm5_puw8wy52mipC-44" style="edgeStyle=orthogonalEdgeStyle;rounded=0;orthogonalLoop=1;jettySize=auto;html=1;exitX=1;exitY=0.5;exitDx=0;exitDy=0;" edge="1" parent="1" source="XS5mWm5_puw8wy52mipC-21" target="XS5mWm5_puw8wy52mipC-43">
          <mxGeometry relative="1" as="geometry" />
        </mxCell>
        <mxCell id="XS5mWm5_puw8wy52mipC-21" value="&lt;span style=&quot;font-size: 13px;&quot;&gt;crm_sales_details&lt;/span&gt;" style="rounded=1;whiteSpace=wrap;html=1;fillColor=#ffe6cc;strokeColor=#d79b00;" vertex="1" parent="1">
          <mxGeometry x="240" y="160" width="180" height="40" as="geometry" />
        </mxCell>
        <mxCell id="XS5mWm5_puw8wy52mipC-36" value="&lt;font style=&quot;font-size: 14px;&quot;&gt;Silver Layer&lt;/font&gt;" style="rounded=1;whiteSpace=wrap;html=1;fillColor=#f5f5f5;strokeColor=#666666;fontStyle=1;fontColor=#333333;" vertex="1" parent="1">
          <mxGeometry x="483" y="80" width="200" height="40" as="geometry" />
        </mxCell>
        <mxCell id="XS5mWm5_puw8wy52mipC-37" value="" style="rounded=1;whiteSpace=wrap;html=1;fillColor=none;strokeColor=#666666;fontColor=#333333;" vertex="1" parent="1">
          <mxGeometry x="478" y="133" width="210" height="380" as="geometry" />
        </mxCell>
        <mxCell id="XS5mWm5_puw8wy52mipC-38" value="&lt;span style=&quot;font-size: 13px;&quot;&gt;erp_px_cat_g1v2&lt;/span&gt;" style="rounded=1;whiteSpace=wrap;html=1;fillColor=#f5f5f5;strokeColor=#666666;fontColor=#333333;" vertex="1" parent="1">
          <mxGeometry x="493" y="430" width="180" height="40" as="geometry" />
        </mxCell>
        <mxCell id="XS5mWm5_puw8wy52mipC-39" value="&lt;span style=&quot;font-size: 13px;&quot;&gt;erp_loc_a101&lt;/span&gt;" style="rounded=1;whiteSpace=wrap;html=1;fillColor=#f5f5f5;strokeColor=#666666;fontColor=#333333;" vertex="1" parent="1">
          <mxGeometry x="493" y="380" width="180" height="40" as="geometry" />
        </mxCell>
        <mxCell id="XS5mWm5_puw8wy52mipC-40" value="&lt;span style=&quot;font-size: 13px;&quot;&gt;erp_cust_az12&lt;/span&gt;" style="rounded=1;whiteSpace=wrap;html=1;fillColor=#f5f5f5;strokeColor=#666666;fontColor=#333333;" vertex="1" parent="1">
          <mxGeometry x="493" y="330" width="180" height="40" as="geometry" />
        </mxCell>
        <mxCell id="XS5mWm5_puw8wy52mipC-41" value="&lt;span style=&quot;font-size: 13px;&quot;&gt;crm_prod_info&lt;/span&gt;" style="rounded=1;whiteSpace=wrap;html=1;fillColor=#f5f5f5;strokeColor=#666666;fontColor=#333333;" vertex="1" parent="1">
          <mxGeometry x="493" y="260" width="180" height="40" as="geometry" />
        </mxCell>
        <mxCell id="XS5mWm5_puw8wy52mipC-42" value="&lt;span style=&quot;font-size: 13px;&quot;&gt;crm_cust_info&lt;/span&gt;" style="rounded=1;whiteSpace=wrap;html=1;fillColor=#f5f5f5;strokeColor=#666666;fontColor=#333333;" vertex="1" parent="1">
          <mxGeometry x="493" y="210" width="180" height="40" as="geometry" />
        </mxCell>
        <mxCell id="XS5mWm5_puw8wy52mipC-43" value="&lt;span style=&quot;font-size: 13px;&quot;&gt;crm_sales_details&lt;/span&gt;" style="rounded=1;whiteSpace=wrap;html=1;fillColor=#f5f5f5;strokeColor=#666666;fontColor=#333333;" vertex="1" parent="1">
          <mxGeometry x="493" y="160" width="180" height="40" as="geometry" />
        </mxCell>
        <mxCell id="XS5mWm5_puw8wy52mipC-50" value="&lt;font style=&quot;font-size: 14px;&quot;&gt;Silver Layer&lt;/font&gt;" style="rounded=1;whiteSpace=wrap;html=1;fillColor=#fff2cc;strokeColor=#d6b656;fontStyle=1;" vertex="1" parent="1">
          <mxGeometry x="780" y="80" width="200" height="40" as="geometry" />
        </mxCell>
        <mxCell id="XS5mWm5_puw8wy52mipC-51" value="" style="rounded=1;whiteSpace=wrap;html=1;fillColor=none;strokeColor=#d6b656;" vertex="1" parent="1">
          <mxGeometry x="780" y="133" width="210" height="380" as="geometry" />
        </mxCell>
        <mxCell id="XS5mWm5_puw8wy52mipC-55" value="dim_products" style="rounded=1;whiteSpace=wrap;html=1;fillColor=#fff2cc;strokeColor=#d6b656;" vertex="1" parent="1">
          <mxGeometry x="795" y="330" width="180" height="40" as="geometry" />
        </mxCell>
        <mxCell id="XS5mWm5_puw8wy52mipC-56" value="dim_customers" style="rounded=1;whiteSpace=wrap;html=1;fillColor=#fff2cc;strokeColor=#d6b656;" vertex="1" parent="1">
          <mxGeometry x="795" y="280" width="180" height="40" as="geometry" />
        </mxCell>
        <mxCell id="XS5mWm5_puw8wy52mipC-57" value="fact_sales" style="rounded=1;whiteSpace=wrap;html=1;fillColor=#fff2cc;strokeColor=#d6b656;" vertex="1" parent="1">
          <mxGeometry x="795" y="230" width="180" height="40" as="geometry" />
        </mxCell>
        <mxCell id="XS5mWm5_puw8wy52mipC-58" value="" style="endArrow=classic;html=1;rounded=0;exitX=1;exitY=0.75;exitDx=0;exitDy=0;entryX=0;entryY=0.5;entryDx=0;entryDy=0;jumpStyle=gap;" edge="1" parent="1" source="XS5mWm5_puw8wy52mipC-43" target="XS5mWm5_puw8wy52mipC-57">
          <mxGeometry width="50" height="50" relative="1" as="geometry">
            <mxPoint x="690" y="290" as="sourcePoint" />
            <mxPoint x="740" y="240" as="targetPoint" />
          </mxGeometry>
        </mxCell>
        <mxCell id="XS5mWm5_puw8wy52mipC-59" value="" style="endArrow=classic;html=1;rounded=0;exitX=1;exitY=0.5;exitDx=0;exitDy=0;entryX=0;entryY=0.25;entryDx=0;entryDy=0;jumpStyle=gap;" edge="1" parent="1" source="XS5mWm5_puw8wy52mipC-42" target="XS5mWm5_puw8wy52mipC-56">
          <mxGeometry width="50" height="50" relative="1" as="geometry">
            <mxPoint x="690" y="290" as="sourcePoint" />
            <mxPoint x="740" y="240" as="targetPoint" />
          </mxGeometry>
        </mxCell>
        <mxCell id="XS5mWm5_puw8wy52mipC-60" value="" style="endArrow=classic;html=1;rounded=0;exitX=1;exitY=0.5;exitDx=0;exitDy=0;entryX=0;entryY=0.5;entryDx=0;entryDy=0;jumpStyle=gap;" edge="1" parent="1" source="XS5mWm5_puw8wy52mipC-40" target="XS5mWm5_puw8wy52mipC-56">
          <mxGeometry width="50" height="50" relative="1" as="geometry">
            <mxPoint x="683" y="240" as="sourcePoint" />
            <mxPoint x="805" y="310" as="targetPoint" />
          </mxGeometry>
        </mxCell>
        <mxCell id="XS5mWm5_puw8wy52mipC-61" value="" style="endArrow=classic;html=1;rounded=0;exitX=1;exitY=0.5;exitDx=0;exitDy=0;entryX=0;entryY=0.75;entryDx=0;entryDy=0;jumpStyle=gap;" edge="1" parent="1" source="XS5mWm5_puw8wy52mipC-39" target="XS5mWm5_puw8wy52mipC-56">
          <mxGeometry width="50" height="50" relative="1" as="geometry">
            <mxPoint x="683" y="360" as="sourcePoint" />
            <mxPoint x="805" y="310" as="targetPoint" />
          </mxGeometry>
        </mxCell>
        <mxCell id="XS5mWm5_puw8wy52mipC-62" value="" style="endArrow=classic;html=1;rounded=0;exitX=1;exitY=0.5;exitDx=0;exitDy=0;entryX=0;entryY=0.25;entryDx=0;entryDy=0;jumpStyle=gap;" edge="1" parent="1" source="XS5mWm5_puw8wy52mipC-41" target="XS5mWm5_puw8wy52mipC-55">
          <mxGeometry width="50" height="50" relative="1" as="geometry">
            <mxPoint x="683" y="410" as="sourcePoint" />
            <mxPoint x="805" y="320" as="targetPoint" />
          </mxGeometry>
        </mxCell>
        <mxCell id="XS5mWm5_puw8wy52mipC-63" value="" style="endArrow=classic;html=1;rounded=0;exitX=1;exitY=0.5;exitDx=0;exitDy=0;entryX=0;entryY=0.5;entryDx=0;entryDy=0;jumpStyle=gap;" edge="1" parent="1" source="XS5mWm5_puw8wy52mipC-38" target="XS5mWm5_puw8wy52mipC-55">
          <mxGeometry width="50" height="50" relative="1" as="geometry">
            <mxPoint x="683" y="290" as="sourcePoint" />
            <mxPoint x="805" y="350" as="targetPoint" />
          </mxGeometry>
        </mxCell>
      </root>
    </mxGraphModel>
  </diagram>
</mxfile>
